<svg xmlns="http://www.w3.org/2000/svg" width="47" height="62"><path data-name="Forma 1" d="M12.181 48.423l-.06.066a2.061 2.061 0 001.507 3.46h19.744a2.061 2.061 0 001.507-3.46l-.06-.066c-1.833-1.969-8.734-7.82-8.822-7.9a3.82 3.82 0 00-4.993 0c-.089.077-6.989 5.931-8.823 7.9zm20.734-19.252c.575-.5 1.231-1.056 1.927-1.644C39.973 23.193 47 17.258 47 11.02V7.266A7.256 7.256 0 0039.769 0H7.231A7.256 7.256 0 000 7.266v3.754c0 6.239 7.027 12.174 12.158 16.508.7.587 1.353 1.142 1.927 1.645a2.375 2.375 0 010 3.657c-.575.5-1.231 1.056-1.927 1.644C7.027 38.807 0 44.742 0 50.981v3.754A7.256 7.256 0 007.231 62h32.538A7.256 7.256 0 0047 54.734a2.41 2.41 0 10-4.821 0 2.419 2.419 0 01-2.41 2.422H7.231a2.419 2.419 0 01-2.41-2.422v-3.753c0-3.982 6.535-9.5 10.439-12.8.712-.6 1.384-1.168 1.989-1.7a7.232 7.232 0 000-10.965c-.605-.529-1.278-1.1-1.989-1.7C11.355 20.522 4.82 15 4.82 11.02V7.266a2.419 2.419 0 012.41-2.422h32.539a2.419 2.419 0 012.41 2.422v3.754c0 3.982-6.535 9.5-10.439 12.8-.712.6-1.384 1.168-1.989 1.7a7.232 7.232 0 000 10.965c.631.551 1.334 1.143 2.078 1.769a67.272 67.272 0 017.1 6.586 2.4 2.4 0 003.4.207 2.431 2.431 0 00.205-3.42 71.911 71.911 0 00-7.614-7.087c-.726-.611-1.412-1.187-2.008-1.709a2.375 2.375 0 01.003-3.66zm-6.815-6.74c.044-.038 1.726-1.491 3.642-3.193a2.206 2.206 0 00-1.413-3.858h-9.421a2.206 2.206 0 00-1.413 3.858c1.916 1.7 3.6 3.156 3.642 3.194a3.751 3.751 0 004.963-.001z" fill="#fff" fill-rule="evenodd"/></svg>