<svg xmlns="http://www.w3.org/2000/svg" width="80" height="63"><path data-name="Forma 1" d="M77.5 5.041H70a2.489 2.489 0 00-1.775.73l-4.25 4.309H60V7.56A7.531 7.531 0 0052.5 0h-45A7.531 7.531 0 000 7.56v40.32a7.53 7.53 0 007.5 7.56H10V50.4H7.5A2.51 2.51 0 015 47.88V7.56a2.51 2.51 0 012.5-2.52h45A2.51 2.51 0 0155 7.56v25.2h5V15.12h5a2.484 2.484 0 001.775-.731l4.25-4.309H75v35.28h-3.975l-4.275-4.31-3.525 3.55 5 5.04A2.487 2.487 0 0070 50.4h7.5a2.51 2.51 0 002.5-2.52V7.56a2.51 2.51 0 00-2.5-2.519zm-30 17.64V12.6a2.51 2.51 0 00-2.5-2.52H15a2.51 2.51 0 00-2.5 2.52v10.08A2.51 2.51 0 0015 25.2h30a2.51 2.51 0 002.5-2.52zM32.5 37.8h-5v12.6h-5V37.8h-5v15.12a2.51 2.51 0 002.5 2.52h7.5V63h5v-7.56H35V50.4h-2.5V37.8zm21.775 4.309l-3.55-3.579-8.225 8.317V37.8h-5V63h5v-9.047l2.3-2.294 8.25 10.408 3.9-3.15-8.6-10.861z" fill="#fff" fill-rule="evenodd"/></svg>