<svg xmlns="http://www.w3.org/2000/svg" width="64" height="64"><path data-name="Forma 1" d="M32 39.5a7.508 7.508 0 007.5-7.5c0-2.9-3.907-16.207-5.1-20.216v-.007c-.01-.034-.023-.067-.035-.1s-.026-.075-.041-.111l-.042-.1c-.014-.035-.035-.075-.054-.112l-.046-.085a4.203 4.203 0 00-.072-.12l-.044-.067a3.245 3.245 0 00-.112-.15l-.02-.026c-.047-.057-.1-.112-.15-.165-.014-.015-.03-.029-.045-.043a2.966 2.966 0 00-.182-.16 2.772 2.772 0 00-.111-.082l-.074-.052q-.057-.036-.117-.07l-.076-.044a2.681 2.681 0 00-.179-.086c-.027-.012-.055-.022-.082-.032-.046-.018-.092-.036-.139-.05l-.098-.022-.13-.033-.092-.019a2.757 2.757 0 00-.147-.022l-.079-.01C32.156 10 32.078 10 32 10a22 22 0 1022 22.167v-.219a21.959 21.959 0 00-8.87-17.478 2.5 2.5 0 10-2.986 4.01 16.895 16.895 0 11-13.586-3.128C26.94 20.916 24.5 29.707 24.5 32a7.508 7.508 0 007.5 7.5zm0-17.954A86.686 86.686 0 0134.5 32a2.5 2.5 0 01-5 0A84.855 84.855 0 0132 21.546zM54.628 9.372A32 32 0 009.373 54.627a32.013 32.013 0 0039.185 4.761 2.5 2.5 0 10-2.59-4.277 27.241 27.241 0 118.454-8.126 2.5 2.5 0 004.157 2.779 31.922 31.922 0 00-3.951-40.392z" fill="#fff" fill-rule="evenodd"/></svg>