<svg xmlns="http://www.w3.org/2000/svg" width="25" height="23"><path data-name="Forma 1" d="M.925 1.874h2.65L7.35 15.719a.927.927 0 00.894.688h11.6a.926.926 0 00.848-.563L24.918 6a.959.959 0 00-.077-.89.915.915 0 00-.771-.422H11.249a.938.938 0 000 1.875h11.4l-3.421 7.969H8.938L5.162.688A.926.926 0 004.269 0H.925a.937.937 0 000 1.874zM7.366 23a2.125 2.125 0 10-2.1-2.125A2.113 2.113 0 007.366 23zm13.1 0h.154a2.081 2.081 0 001.433-.734 2.138 2.138 0 00.508-1.547A2.094 2.094 0 1020.464 23z" fill-rule="evenodd"/></svg>